<?xml version="1.0" encoding="utf-8"?>
<!-- Generator: Adobe Illustrator 24.0.1, SVG Export Plug-In . SVG Version: 6.00 Build 0)  -->
<svg version="1.1" id="레이어_1" xmlns="http://www.w3.org/2000/svg" xmlns:xlink="http://www.w3.org/1999/xlink" x="0px"
	 y="0px" viewBox="0 0 200 200" style="enable-background:new 0 0 200 200;" xml:space="preserve">
<style type="text/css">
	.st0{fill-rule:evenodd;clip-rule:evenodd;fill:#FF5A5A;}
</style>
<title>chupachups-logo-web</title>
<path class="st0" d="M197.2,59.7C191.5,46,178,37,163.1,36.9c0-20.4-16.6-37-37.1-36.9c-9.8,0-19.1,3.9-26.1,10.8
	C85.5-3.7,62.1-3.6,47.7,10.8c-6.9,6.9-10.8,16.3-10.8,26.1c-20.4,0-37,16.6-36.9,37.1c0,9.8,3.9,19.1,10.8,26.1
	c-14.4,14.5-14.4,37.9,0.1,52.3c6.9,6.9,16.3,10.8,26.1,10.8c0,20.4,16.6,37,37.1,36.9c9.8,0,19.1-3.9,26.1-10.8
	c14.5,14.4,37.9,14.4,52.3-0.1c6.9-6.9,10.8-16.3,10.8-26c20.4,0,37-16.6,36.9-37.1c0-9.8-3.9-19.1-10.8-26.1
	C199.7,89.4,202.9,73.5,197.2,59.7L197.2,59.7z"/>
</svg>
