<svg xmlns="http://www.w3.org/2000/svg" width="148" height="148" viewBox="0 0 148 148">
    <g fill="none" fill-rule="evenodd">
        <path fill="#FEFEFE" d="M134 76.854C134 50.158 120.183 20 77.503 20 35.064 20 21 47.746 21 76.854 21 106.206 37.9 130 77.503 130 119.319 130 134 106.206 134 76.854"/>
        <path fill="#1F1311" d="M108.995 60.967c-.103 2.18-1.351 4.08-4.367 4.032-2.312-.037-4.628-1.365-4.628-3.545 0-2.186 1.251-3.818 3.498-4.326 2.36-.535 5.653.579 5.497 3.839M54.995 60.967c-.106 2.18-1.354 4.08-4.372 4.032-2.31-.037-4.623-1.365-4.623-3.545 0-2.186 1.248-3.818 3.492-4.326 2.364-.535 5.657.579 5.503 3.839"/>
        <path stroke="#1F1311" stroke-linecap="round" stroke-linejoin="round" stroke-width="3" d="M134 76.854C134 50.158 120.183 20 77.503 20 35.064 20 21 47.746 21 76.854 21 106.206 37.9 130 77.503 130 119.319 130 134 106.206 134 76.854z"/>
        <path fill="#F9BE00" d="M22.109 90.899c-3.965-2.206-4.968-7.591-3.407-12.322 1.44-4.342 6.24-7.171 13.376-4.965 6.531 2.018 17.36 4.78 30.546 5.368.65-3.19 2.891-11.5 14.637-10.954 11.773.548 13.51 7.252 14.135 10.954 8.54-.735 15.282-2.687 19.4-3.956 5.237-1.61 10.115-1.55 14.237.978 3.911 2.402 6.78 6.599 7.623 11.707 1.28 7.789-.902 15.892-8.514 21.668-10.042 7.63-25.027 11.76-47.671 11.62-23.337-.151-39.09-4.893-49.66-10.42-9.86-5.15-8.628-15.672-4.702-19.678"/>
        <path stroke="#1F1311" stroke-linecap="round" stroke-linejoin="round" stroke-width="3" d="M22.109 90.899c-3.965-2.206-4.968-7.591-3.407-12.322 1.44-4.342 6.24-7.171 13.376-4.965 6.531 2.018 17.36 4.78 30.546 5.368.65-3.187 2.891-11.5 14.637-10.954 11.773.548 13.51 7.252 14.135 10.954 8.54-.735 15.282-2.687 19.4-3.956 5.237-1.61 10.115-1.55 14.237.978 3.911 2.402 6.78 6.599 7.623 11.707 1.28 7.789-.902 15.892-8.514 21.668-10.042 7.63-25.027 11.76-47.671 11.62-23.337-.151-39.09-4.893-49.66-10.42-9.86-5.15-8.628-15.672-4.702-19.678z"/>
        <path fill="#1F1311" d="M73 77a2 2 0 1 0-3.999-.001A2 2 0 0 0 73 77M85 77a2 2 0 1 0-3.999-.001A2 2 0 0 0 85 77"/>
        <path stroke="#1F1311" stroke-linecap="round" stroke-linejoin="round" stroke-width="6" d="M46 35.798S53.75 31.62 60 36M96 36s6.862-4.444 14-.083"/>
        <path stroke="#1F1311" stroke-linecap="round" stroke-linejoin="round" stroke-width="3" d="M22 91s47.985 20.6 96 2.668"/>
    </g>
</svg>
