<svg xmlns="http://www.w3.org/2000/svg" width="136" height="48" viewBox="0 0 136 48">
    <g fill="none" fill-rule="evenodd">
        <path stroke="#1F1311" stroke-linecap="round" stroke-linejoin="round" stroke-width="4" d="M66.995 20.655C66.822 12.28 60.242 6.99 50.26 7c-7.935.011-17.514 2.656-18.215 13.655-.703 11 6.828 15.314 17.478 15.345 11.778.039 17.683-5.134 17.472-15.345zM89.005 20.655C89.178 12.28 95.756 6.99 105.74 7c7.935.011 17.515 2.656 18.216 13.655.703 11-6.832 15.314-17.48 15.345-11.773.039-17.678-5.134-17.47-15.345z"/>
        <path fill="#1F1311" d="M87.803 23c-.45 0-.903-.137-1.291-.42-9.747-7.078-17.537-.413-17.867-.126a2.201 2.201 0 0 1-3.097-.195 2.19 2.19 0 0 1 .193-3.091c3.687-3.234 13.308-7.426 23.356-.129A2.19 2.19 0 0 1 87.803 23"/>
        <g>
            <path fill="#FEFEFE" d="M25.638 17.897s16.925-8.226 10.57-14.78c-1.429-1.466-3.934-1.777-7.226.844C25.696 6.587 22.55 9.405 17.677 12 9.98 16.095.199 22.45 2.285 35.145c1.22 7.45 9.49 12.185 16.072 8.673 3.909-2.08 6.617-3.175 10.686-3.13 2.17.023 5.675 1.829 8.222.943 1.906-.668 3.067-1.896 2.65-3.999-1-5.023-7.474-5.274-10.23-6.53-2.428-1.11-4.57-4.152-4.57-4.152l.523-9.053z"/>
            <path stroke="#1F1311" stroke-linecap="round" stroke-linejoin="round" stroke-width="3" d="M25.638 17.897s16.925-8.226 10.57-14.78c-1.429-1.466-3.934-1.777-7.226.844C25.696 6.587 22.55 9.405 17.677 12 9.98 16.095.197 22.45 2.286 35.145c1.22 7.45 9.489 12.185 16.072 8.673 3.908-2.08 6.616-3.175 10.686-3.13 2.166.023 5.674 1.829 8.222.943 1.905-.668 3.066-1.896 2.65-3.999-1-5.023-7.475-5.274-10.23-6.53-2.429-1.11-4.57-4.152-4.57-4.152l.522-9.053z"/>
            <path fill="#FEFEFE" d="M21.591 15.017c6.78 2.19 9.891 8.243 7.812 11.819-1.92 3.304-5.268 1.722-5.268 1.722"/>
            <path stroke="#1F1311" stroke-linecap="round" stroke-linejoin="round" stroke-width="3" d="M21.591 15.017c6.78 2.19 9.891 8.243 7.812 11.819-1.92 3.304-5.268 1.722-5.268 1.722"/>
            <path fill="#FEFEFE" d="M19.717 20.261s5.856 3.528 5.421 8.625c-.306 3.482-3.612 5.352-6.564 5.123"/>
            <path stroke="#1F1311" stroke-linecap="round" stroke-linejoin="round" stroke-width="3" d="M19.717 20.261s5.856 3.528 5.421 8.625c-.306 3.482-3.612 5.352-6.564 5.123"/>
            <g>
                <path fill="#FEFEFE" d="M15.494 25.03s5.39 3.36 4.08 9.31c-.594 2.712-2.874 4.324-5.706 3.783-2.706-.516-2.937-3.5-1.728-5.61"/>
                <path stroke="#1F1311" stroke-linecap="round" stroke-linejoin="round" stroke-width="3" d="M15.494 25.03s5.39 3.36 4.08 9.31c-.594 2.712-2.874 4.324-5.706 3.783-2.706-.516-2.937-3.5-1.728-5.61"/>
            </g>
        </g>
        <rect width="10" height="4" x="124" y="20" fill="#1F1311" fill-rule="nonzero" rx="2"/>
    </g>
</svg>
